<?xml version="1.0" standalone="no"?>
<!DOCTYPE svg PUBLIC "-//W3C//DTD SVG 20010904//EN"
 "http://www.w3.org/TR/2001/REC-SVG-20010904/DTD/svg10.dtd">
<svg version="1.0" xmlns="http://www.w3.org/2000/svg"
 width="500.000000pt" height="262.000000pt" viewBox="0 0 500.000000 262.000000"
 preserveAspectRatio="xMidYMid meet">

<g transform="translate(0.000000,262.000000) scale(0.100000,-0.100000)"
fill="#000000" stroke="none">
<path d="M2028 1873 c-10 -84 -12 -132 -5 -140 18 -24 27 -13 27 36 0 28 3 52
8 55 4 2 36 -59 72 -137 35 -78 91 -198 123 -267 l59 -124 17 49 c23 67 215
495 222 495 8 0 51 -489 43 -501 -3 -6 -16 -14 -28 -19 -13 -6 16 -8 84 -8 58
1 93 3 79 5 -56 9 -59 20 -100 359 -21 174 -39 318 -41 319 -2 1 -61 -127
-133 -286 -71 -159 -132 -289 -135 -289 -3 0 -63 127 -134 283 -72 155 -133
286 -136 290 -4 4 -14 -50 -22 -120z"/>
<path d="M1484 1878 c-23 -11 -44 -48 -44 -77 0 -10 9 -30 21 -45 44 -56 139
-21 139 53 0 60 -60 96 -116 69z"/>
<path d="M1986 1509 c-9 -78 -21 -150 -26 -160 -6 -10 -25 -23 -43 -28 -25 -7
-12 -9 63 -9 52 1 85 3 72 5 -12 2 -26 12 -30 21 -5 10 -3 77 3 152 12 128 9
160 -15 160 -4 0 -15 -63 -24 -141z"/>
<path d="M1203 1102 c-11 -7 -16 -26 -14 -49 0 -7 19 -25 41 -39 43 -29 50
-47 23 -63 -24 -14 -7 -14 18 -1 34 19 25 63 -18 91 -48 31 -50 54 -5 54 17 0
32 3 32 7 0 10 -61 10 -77 0z"/>
<path d="M1365 1025 c0 -78 2 -85 20 -85 18 0 20 7 20 85 0 78 -2 85 -20 85
-18 0 -20 -7 -20 -85z"/>
<path d="M1765 1025 c0 -78 2 -85 20 -85 19 0 20 6 17 80 -3 75 -2 80 17 80
31 0 46 -36 26 -66 -17 -26 -7 -31 26 -14 12 7 19 21 19 39 0 24 -6 31 -31 40
-18 6 -46 11 -63 11 l-31 0 0 -85z"/>
<path d="M1958 1025 c-3 -82 -2 -85 20 -85 19 0 22 5 22 40 l0 40 41 0 42 0
-6 -40 c-5 -36 -3 -40 16 -40 21 0 22 4 19 85 -3 75 -6 85 -22 85 -15 0 -17
-6 -13 -40 l6 -40 -42 0 -41 0 0 40 c0 33 -3 40 -19 40 -18 0 -20 -9 -23 -85z"/>
<path d="M2200 1025 c0 -78 2 -85 20 -85 18 0 20 7 20 85 0 78 -2 85 -20 85
-18 0 -20 -7 -20 -85z"/>
<path d="M2331 1058 c12 -29 26 -66 32 -82 l10 -30 24 55 25 54 27 -53 27 -53
26 81 c14 44 22 80 17 80 -5 0 -9 -8 -9 -17 -1 -10 -7 -31 -14 -48 l-13 -30
-25 49 -25 49 -19 -47 c-10 -25 -22 -46 -27 -46 -4 0 -12 20 -19 45 -10 37
-16 45 -35 45 l-23 0 21 -52z"/>
<path d="M2598 1025 l-3 -85 58 0 c31 0 57 4 57 8 0 4 -16 6 -35 4 -34 -4 -35
-3 -35 31 0 31 3 36 28 40 l27 4 -27 2 c-25 1 -28 5 -28 35 0 32 3 35 33 39
22 3 16 4 -20 5 l-52 2 -3 -85z"/>
<path d="M3155 1025 l0 -87 54 4 c37 4 58 11 67 23 19 25 18 31 -8 55 -12 11
-16 20 -10 20 14 0 16 46 2 55 -5 3 -31 8 -57 12 l-48 5 0 -87z m76 59 c9 -11
10 -20 2 -32 -7 -13 -6 -23 4 -39 18 -27 2 -63 -27 -63 -18 0 -20 7 -20 75 0
78 11 95 41 59z"/>
<path d="M3355 1068 c1 -24 3 -55 4 -70 1 -32 25 -58 54 -58 l21 0 -22 16
c-19 13 -22 24 -22 85 0 61 -2 69 -19 69 -16 0 -18 -7 -16 -42z"/>
<path d="M3488 1051 c2 -35 -2 -69 -9 -83 -11 -21 -11 -22 4 -9 13 10 17 30
17 82 0 38 -3 69 -7 69 -5 0 -6 -27 -5 -59z"/>
<path d="M3580 1025 l0 -85 54 0 c42 0 55 4 61 18 5 14 4 15 -6 5 -7 -7 -26
-13 -41 -13 l-28 0 0 80 c0 73 -2 80 -20 80 -18 0 -20 -7 -20 -85z"/>
<path d="M3765 1025 c0 -78 2 -85 20 -85 18 0 20 7 20 85 0 78 -2 85 -20 85
-18 0 -20 -7 -20 -85z"/>
<path d="M1506 1079 c-15 -79 -22 -139 -14 -139 4 0 8 12 9 28 0 15 4 36 8 46
6 16 11 13 36 -26 l29 -46 30 47 30 46 9 -47 c7 -37 14 -48 28 -48 15 0 17 6
14 28 -3 15 -9 52 -13 82 l-8 55 -38 -59 -38 -58 -38 58 c-35 52 -39 55 -44
33z"/>
<path d="M2895 1053 c-4 -27 -11 -63 -15 -80 -7 -26 -5 -33 6 -33 9 0 13 3 11
8 -3 4 -2 25 2 47 l7 40 28 -42 c16 -24 31 -43 35 -43 3 0 17 19 30 42 21 37
25 40 32 23 4 -11 8 -32 8 -47 1 -23 6 -28 25 -28 22 0 23 2 15 33 -4 17 -12
55 -16 82 l-8 50 -37 -58 -36 -59 -38 56 c-20 31 -38 56 -40 56 -1 0 -6 -21
-9 -47z"/>
<path d="M1180 968 c0 -17 36 -35 47 -24 4 3 -1 6 -10 6 -9 0 -21 8 -26 18 -9
15 -10 16 -11 0z"/>
</g>
</svg>
